<svg width="15" height="16" viewBox="0 0 15 16" fill="none" xmlns="http://www.w3.org/2000/svg">
<path d="M5.625 0.00311279C8.73141 0.00311279 11.25 2.52163 11.25 5.62794C11.25 6.5776 11.0123 7.47147 10.5961 8.25661L14.5073 12.1668L14.5041 12.1696C14.8097 12.4701 15 12.8863 15 13.3489C15 14.2625 14.2594 15.0031 13.3458 15.0031C12.8841 15.0031 12.4673 14.8128 12.1669 14.5067L12.1678 14.5058L8.25797 10.5965C7.47234 11.0142 6.57703 11.2528 5.625 11.2528C2.51859 11.2528 0 8.73425 0 5.62794C0 2.52163 2.51859 0.00311279 5.625 0.00311279ZM12.7523 13.9208C12.9033 14.0774 13.1123 14.1753 13.3458 14.1753C13.8028 14.1753 14.1731 13.8055 14.1731 13.3485C14.1731 13.115 14.0747 12.9065 13.9186 12.7551L13.9228 12.7513L10.1419 8.97049C9.81141 9.41626 9.41766 9.80999 8.97281 10.1414L12.7523 13.9208ZM5.625 10.3158C8.21344 10.3158 10.3125 8.21629 10.3125 5.62841C10.3125 3.04005 8.21344 0.941052 5.625 0.941052C3.03703 0.941052 0.9375 3.04005 0.9375 5.62841C0.9375 8.21629 3.03703 10.3158 5.625 10.3158ZM5.625 2.34679C5.49609 2.34679 5.39062 2.45179 5.39062 2.58116C5.39062 2.71053 5.49609 2.81553 5.625 2.81553C7.17844 2.81553 8.4375 4.07502 8.4375 5.62794C8.4375 5.75731 8.5425 5.8623 8.67188 5.8623C8.80125 5.8623 8.90625 5.75731 8.90625 5.62794C8.90625 3.81581 7.43766 2.34679 5.625 2.34679Z" fill="#007FFF"/>
</svg>
